<svg xmlns="http://www.w3.org/2000/svg" width="30.55" height="29.942" viewBox="0 0 30.55 29.942">
  <g id="Group_2296" data-name="Group 2296" transform="translate(-1149.5 -336.5)">
    <g id="Group_2295" data-name="Group 2295" transform="translate(1169.051 353.669)">
      <path id="Path_1526" data-name="Path 1526" d="M21.39,20.144V17.6a2.6,2.6,0,0,1,2.6-2.6h0a2.6,2.6,0,0,1,2.6,2.6v2.6" transform="translate(-18.238 -15)" fill="none" stroke="#000" stroke-miterlimit="10" stroke-width="1"/>
      <g id="lock" transform="translate(0 4.853)">
        <path id="Path_1528" data-name="Path 1528" d="M17.119,27H7.88a.88.88,0,0,0-.88.88v6.159a.88.88,0,0,0,.88.88h9.239a.88.88,0,0,0,.88-.88V27.88A.88.88,0,0,0,17.119,27Zm-4.4,4.6v1.34a.22.22,0,0,1-.44,0V31.6a1.32,1.32,0,1,1,.44,0Z" transform="translate(-7 -27)" fill="#e30613"/>
      </g>
    </g>
    <g id="Warstwa_2" data-name="Warstwa 2" transform="translate(1150 337)">
      <g id="Warstwa_1" data-name="Warstwa 1" transform="translate(0 0)">
        <line id="Line_58" data-name="Line 58" x2="26.787" transform="translate(0 5.361)" fill="none" stroke="#000" stroke-miterlimit="10" stroke-width="1"/>
        <path id="Path_1531" data-name="Path 1531" d="M27.537,15.037V6.111L21.287.75H7L.75,6.111V25.75H17.713" transform="translate(-0.75 -0.75)" fill="none" stroke="#000" stroke-linecap="square" stroke-miterlimit="10" stroke-width="1"/>
        <path id="Path_1532" data-name="Path 1532" d="M18.5,15.037H11.36V6.111L14.036.75h1.787L18.5,6.111Z" transform="translate(-1.536 -0.75)" fill="none" stroke="#000" stroke-linecap="square" stroke-miterlimit="10" stroke-width="1"/>
      </g>
    </g>
  </g>
</svg>
