<?xml version="1.0" encoding="utf-8"?>
<!-- Generator: Adobe Illustrator 21.1.0, SVG Export Plug-In . SVG Version: 6.00 Build 0)  -->
<svg version="1.1" xmlns="http://www.w3.org/2000/svg" xmlns:xlink="http://www.w3.org/1999/xlink" x="0px" y="0px"
	 viewBox="0 0 279.8 67.9" style="enable-background:new 0 0 279.8 67.9;" xml:space="preserve">
<style type="text/css">
	.st0{fill:#86CEE9;}
	.st1{fill:#E73C79;}
	.st2{fill:#1D1D1B;}
	.st3{fill:#565555;}
	.st4{fill:#F8B133;}
	.st5{fill:#FFFFFF;}
	.st6{fill:#E31F27;}
	.st7{fill:#EC2227;}
	.st8{fill:#29367D;}
	.st9{fill:#009EE2;}
	.st10{fill:#A2195B;}
	.st11{fill:#312782;}
	.st12{fill:#E61B72;}
	.st13{fill-rule:evenodd;clip-rule:evenodd;fill:#231F20;}
	.st14{fill-rule:evenodd;clip-rule:evenodd;fill:#ED1C24;}
	.st15{fill:#00A9B0;}
	.st16{fill:#614948;}
	.st17{fill:#BED362;}
	.st18{fill:#231F20;}
	.st19{fill:#6D6E70;}
	.st20{fill:#EC328C;}
	.st21{fill:#D91C5C;}
</style>
<g id="Guides">
</g>
<g id="Layer_2">
	<g>
		<g>
			<path class="st0" d="M29.8,7.6c1.2-0.3,2.3-0.4,3.3-0.4c1,0,1.9,0.1,2.6,0.4l-5.3,40.6h-7.3L25.2,30l-0.7,0.2
				c-3.3,1-6.3,1.9-9,2.9L14.7,39c-0.9,6.4-3.8,9.5-9,9.5c-1.8,0-3.3-0.5-4.3-1.6c-1-1.1-1.5-2.5-1.5-4.2c0-3.8,2.7-7.3,8.1-10.4
				l2.8-23.4c0.7-0.5,1.6-0.9,2.7-1.2c1.1-0.3,2.2-0.5,3.2-0.5c1,0,1.7,0,2.1,0.1l-2.8,21.5c2.2-0.8,5-1.6,8.3-2.5l1.3-0.3l2-17.4
				C27.9,8.2,28.6,7.9,29.8,7.6z M3.8,41.9c0,1.2,0.5,1.7,1.6,1.7c0.6,0,1-0.2,1.1-0.5c0.2-0.3,0.3-0.6,0.4-0.9
				C7,42,7,41.7,7.1,41.3c0.1-0.4,0.1-0.7,0.2-1.1c0-0.3,0.1-0.7,0.1-1.2c0-0.5,0.1-0.9,0.1-1.2L7.6,37C5.1,38.8,3.8,40.4,3.8,41.9z
				"/>
			<path class="st0" d="M111.7,41.5c0-0.3,0-0.5,0-0.8c-0.2,0.4-0.5,0.8-0.8,1.1c-1,1.2-2,1.8-2.9,1.8c-1.2,0-1.7-0.7-1.7-2.2
				c0-1.1,0.2-2.8,0.5-5.3c0.1-1.1,0.4-2.9,0.8-5.5c0.3-2.6,0.7-5.2,1-7.9c-0.6-0.4-1.6-0.5-3-0.5c-1.4,0-2.6,0.3-3.5,0.9
				c-1.5-0.6-3.2-0.9-5-0.9h-0.3c-4.2,0-7.8,1.4-10.5,4.2c-2.8,2.8-4.2,6.6-4.2,11.3c0,0.2,0,0.3,0,0.5c-0.5,0.9-1,1.7-1.5,2.4
				c-1.5,2-3.2,3-4.9,3c-1.6,0-2.4-0.9-2.4-2.8c0-0.4,0.2-2.5,0.6-6.2c0.2-1.7,0.4-3.4,0.6-5.1c5.7-5,8.7-9.9,9.1-14.7
				c0-0.4,0-0.8,0-1.1c0-4.4-2.4-6.6-7.1-6.6c-1.4,0-2.6,0.3-3.6,0.8c-2.2,1.1-3.5,3.8-4,8c-1.5,12.5-2.4,20.4-2.7,23.8
				c-0.4,0.7-0.8,1.4-1.2,1.9c-1.1,1.3-2.1,1.9-3,1.9c-1,0-1.6-0.7-1.6-2.2c0-0.8,0.7-7,2.2-18.6c-0.6-0.4-1.5-0.5-2.8-0.5
				c-1.2,0-2.3,0.2-3.1,0.6c-0.8,0.4-1.4,0.9-1.6,1.5l-1.8,14.4c-0.1,0.9-0.1,1.5-0.1,1.9c-1.2,1.8-2.7,2.6-4.5,2.6
				c-1.9,0-2.9-1.1-2.9-3.2c0-0.4,0-0.8,0.1-1.2l1.8-13.7c0-0.9-0.2-1.5-0.7-2c-0.4-0.5-0.9-0.7-1.3-0.8c-0.5-0.1-1.2-0.1-2.1-0.1
				c-0.9,0-2,0.2-3.1,0.6c-0.4,4-1.1,9.3-1.9,16c-0.2,1.3-0.3,2.1-0.3,2.6c0,2.1,0.7,3.8,2.1,5.1c1.4,1.3,3.4,1.9,6,1.9
				c3.1,0,5.6-1.2,7.5-3.6c1.1,2.4,3.2,3.6,6.3,3.6c1.9,0,3.8-0.7,5.6-2.2c0.4-0.3,0.7-0.6,1-1c0.3,0.5,0.6,1,1.1,1.4
				c1.3,1.2,3,1.9,5.2,1.9c2.2,0,4.2-0.5,6-1.6c1.6-0.9,2.8-2.1,3.8-3.5c0.2-0.2,0.3-0.4,0.4-0.6c0.5,1,1.1,1.8,1.9,2.6
				c2,2,4.5,3,7.4,3c2.9,0,5.3-1.2,7.2-3.5c1.1,2.3,3.3,3.4,6.6,3.4c1.7,0,3.5-0.7,5.2-2.1c0.4-0.3,0.8-0.7,1.2-1.2
				C112.1,44.2,111.7,43,111.7,41.5z M75.3,22.6c0.1-0.5,0.2-2,0.5-4.2c0.2-2.3,0.5-3.9,0.8-4.9c0.3-1,0.8-1.6,1.7-1.6
				c1.3,0,1.9,0.9,1.9,2.6c0,2.9-1.7,6.1-5,9.8L75.3,22.6z M99.4,38.8c-1.2,3.2-2.9,4.8-5.1,4.8c-1.3,0-2.4-0.5-3.3-1.6
				c-0.8-1-1.3-2.5-1.3-4.2c0-0.3,0-0.6,0.1-0.9c0.3-3.5,1.1-6,2.4-7.8c1.3-1.8,3.2-2.6,5.5-2.6c1,0,2,0.2,3,0.6L99.4,38.8z"/>
			<path class="st0" d="M113.6,36.1c0,0,0,0.1,0,0.2C113.6,36.2,113.6,36.2,113.6,36.1C113.6,36.1,113.6,36.1,113.6,36.1z"/>
		</g>
		<g>
			<path class="st1" d="M144.8,6c-1,0-2.2,0.1-3.3,0.4c-1.2,0.3-1.9,0.5-2.1,0.8l-2,17.4l-1.3,0.3c-3.3,0.9-6.1,1.8-8.3,2.5
				l2.8-21.5c-0.3,0-1-0.1-2.1-0.1c-1,0-2.1,0.2-3.2,0.5c-1.1,0.3-2,0.7-2.7,1.2l-2.8,23.4c-2.8,1.6-4.8,3.2-6.2,5
				c0,0-0.1,0.1-0.1,0.1v0c-1.1,1.4-1.7,2.9-1.8,4.4c0,0,0,0,0,0c0,0.3,0,0.5,0,0.8c0,1.5,0.4,2.7,1.1,3.7c0.1,0.2,0.3,0.4,0.4,0.5
				c1,1.1,2.4,1.6,4.3,1.6c5.1,0,8.1-3.2,9-9.5l0.8-5.9c2.7-0.9,5.7-1.9,9-2.9l0.7-0.2l-2.1,18.2h7.3l5.3-40.6
				C146.7,6.2,145.9,6,144.8,6z M119.2,36.7c0,0.3-0.1,0.7-0.1,1.2c0,0.5-0.1,0.9-0.1,1.2c0,0.3-0.1,0.6-0.2,1
				c-0.1,0.4-0.2,0.7-0.2,0.9c-0.1,0.2-0.2,0.5-0.4,0.9c-0.2,0.3-0.6,0.5-1.1,0.5c-1,0-1.6-0.6-1.6-1.7c0-1.5,1.3-3.1,3.8-4.8
				L119.2,36.7z"/>
			<path class="st1" d="M164.3,21.1c3.3,0,6.1,1.1,8.3,3.2c2.2,2.1,3.3,4.7,3.3,7.8c0,4.6-1.4,8.4-4.1,11.1c-2.7,2.8-6,4.2-9.8,4.2
				c-3.8,0-6.9-1.1-9.1-3.3c-2.2-2.2-3.4-4.9-3.4-8.1c0-4.5,1.4-8.1,4.2-10.8C156.4,22.5,160,21.1,164.3,21.1z M163.3,25.5
				c-1.7,0-3.1,1-4.3,2.9c-1.2,1.9-1.8,4.4-1.9,7.3c0,2.1,0.4,3.8,1.3,5.2c0.8,1.4,2.1,2.1,3.9,2.1c1.7,0,3.2-1,4.3-2.9
				c1.2-1.9,1.8-4.1,1.8-6.5c0-2.4-0.4-4.4-1.2-5.8C166.2,26.3,165,25.5,163.3,25.5z"/>
			<path class="st1" d="M184.2,21.1c2.3,0,3.7,0.6,4.1,1.8c1.7-1.2,3.8-1.8,6.4-1.8c2.6,0,4.8,1.1,6.7,3.2c1.9,2.1,2.8,4.6,2.8,7.4
				c0,0.4,0,0.8-0.1,1.2c-0.4,4.7-2,8.3-4.7,10.8c-2.8,2.5-6.4,3.7-10.8,3.7c-1,0-2.1-0.1-3.3-0.4l-1.7,14.8h-7.1
				c2.3-19.8,3.8-33.3,4.6-40.4C181.8,21.2,182.9,21.1,184.2,21.1z M196.6,32.1c0-1.6-0.4-3-1.1-4.2c-0.7-1.2-1.8-1.8-3.3-1.8
				c-2.1,0-3.6,1.3-4.7,4c-0.7,5.3-1.1,8.4-1.2,9.3c0,1.1,0.3,1.9,1,2.4c0.7,0.5,1.6,0.8,2.6,0.8c1.8,0,3.3-0.8,4.5-2.5
				C195.8,38,196.6,35.4,196.6,32.1z"/>
		</g>
	</g>
	<g>
		<path class="st0" d="M275.6,34h4.2c0-9.4-3.8-17.9-9.9-24l-3,3C272.3,18.3,275.6,25.7,275.6,34z"/>
		<path class="st1" d="M266.9,12.9l3-3c-6.1-6.1-14.6-9.9-24-9.9v4.2C254.1,4.2,261.5,7.5,266.9,12.9z"/>
		<path class="st1" d="M224.8,55l-3,3c6.1,6.1,14.6,9.9,24,9.9v-4.2C237.6,63.7,230.2,60.4,224.8,55z"/>
		<path class="st0" d="M245.9,4.2V0c-9.4,0-17.9,3.8-24,9.9l3,3C230.2,7.5,237.6,4.2,245.9,4.2z"/>
		<path class="st0" d="M245.9,63.7v4.2c9.4,0,17.9-3.8,24-9.9l-3-3C261.5,60.4,254.1,63.7,245.9,63.7z"/>
		<path class="st1" d="M275.6,34c0,8.2-3.3,15.7-8.7,21.1l3,3c6.1-6.1,9.9-14.6,9.9-24H275.6z"/>
		<path class="st1" d="M224.8,12.9l-3-3c-6.1,6.1-9.9,14.6-9.9,24h4.2C216.1,25.7,219.4,18.3,224.8,12.9z"/>
		<path class="st0" d="M216.1,34h-4.2c0,9.4,3.8,17.9,9.9,24l3-3C219.4,49.6,216.1,42.2,216.1,34z"/>
	</g>
	<g>
		<path class="st2" d="M227.9,38c0.5-0.5,1.1-0.8,1.9-0.8c0.7,0,1.4,0.3,1.9,0.8c0.5,0.5,0.8,1.1,0.8,1.9c0,0.7-0.3,1.4-0.8,1.9
			c-0.5,0.5-1.1,0.8-1.9,0.8c-0.7,0-1.4-0.3-1.9-0.8c-0.5-0.5-0.8-1.1-0.8-1.9C227.2,39.1,227.4,38.5,227.9,38z"/>
		<path class="st2" d="M238.4,26.2c1.4,0,2.2,0.4,2.5,1.1c1-0.7,2.3-1.1,3.9-1.1s2.9,0.6,4,1.9c1.1,1.3,1.7,2.8,1.7,4.5
			c0,0.2,0,0.5,0,0.7c-0.2,2.8-1.2,5-2.9,6.5c-1.7,1.5-3.8,2.2-6.5,2.2c-0.6,0-1.3-0.1-2-0.2l-1,8.9h-4.2c1.4-11.9,2.3-20,2.8-24.2
			C237,26.3,237.6,26.2,238.4,26.2z M245.8,32.8c0-1-0.2-1.8-0.6-2.5c-0.4-0.7-1.1-1.1-2-1.1c-1.2,0-2.2,0.8-2.8,2.4
			c-0.4,3.2-0.7,5.1-0.7,5.6c0,0.6,0.2,1.1,0.6,1.5c0.4,0.3,1,0.5,1.6,0.5c1.1,0,2-0.5,2.7-1.5C245.4,36.4,245.8,34.8,245.8,32.8z"
			/>
		<path class="st2" d="M256.3,42.1c-1.3,0-2.4-0.4-3.1-1.1c-0.8-0.7-1.1-1.8-1.1-3.1c0-0.3,0.6-5.5,1.7-15.4
			c0.3-2.5,1.1-4.2,2.4-4.8c0.6-0.3,1.3-0.5,2.2-0.5c2.9,0,4.3,1.3,4.3,4c0,0.2,0,0.4,0,0.7c-0.2,2.9-2,5.8-5.4,8.8
			c-0.1,1.1-0.2,2.1-0.4,3.1c-0.3,2.2-0.4,3.5-0.4,3.7c0,1.1,0.5,1.7,1.5,1.7c1.1,0,2-0.6,3-1.8c0.9-1.2,1.6-2.8,2.1-4.7
			c0.2,0.1,0.5,0.2,0.8,0.5c0.3,0.3,0.6,0.5,0.7,0.8c-0.3,1.8-1.1,3.5-2.3,5.2c-0.6,0.8-1.4,1.5-2.3,2.1
			C258.8,41.8,257.6,42.1,256.3,42.1z M257.6,27.4c2-2.2,3-4.1,3-5.9c0-1-0.4-1.6-1.2-1.6c-0.5,0-0.8,0.4-1,1
			c-0.2,0.6-0.3,1.6-0.5,2.9c-0.1,1.4-0.2,2.2-0.3,2.5L257.6,27.4z"/>
	</g>
</g>
<g id="Layer_9">
</g>
<g id="Layer_10">
</g>
<g id="Layer_11">
</g>
<g id="Layer_3">
</g>
<g id="Layer_4">
</g>
<g id="Layer_5">
</g>
<g id="Layer_6">
</g>
<g id="Layer_7">
</g>
<g id="Layer_8">
</g>
</svg>
