<?xml version="1.0" encoding="utf-8"?>
<!-- Generator: Adobe Illustrator 21.1.0, SVG Export Plug-In . SVG Version: 6.00 Build 0)  -->
<svg version="1.1" xmlns="http://www.w3.org/2000/svg" xmlns:xlink="http://www.w3.org/1999/xlink" x="0px" y="0px"
	 viewBox="0 0 277.4 51.3" style="enable-background:new 0 0 277.4 51.3;" xml:space="preserve">
<style type="text/css">
	.st0{fill:#86CEE9;}
	.st1{fill:#E73C79;}
	.st2{fill:#1D1D1B;}
	.st3{fill:#565555;}
	.st4{fill:#F8B133;}
	.st5{fill:#FFFFFF;}
	.st6{fill:#E31F27;}
	.st7{fill:#EC2227;}
	.st8{fill:#29367D;}
	.st9{fill:#009EE2;}
	.st10{fill:#A2195B;}
	.st11{fill:#312782;}
	.st12{fill:#E61B72;}
	.st13{fill-rule:evenodd;clip-rule:evenodd;fill:#231F20;}
	.st14{fill-rule:evenodd;clip-rule:evenodd;fill:#ED1C24;}
	.st15{fill:#00A9B0;}
	.st16{fill:#614948;}
	.st17{fill:#BED362;}
	.st18{fill:#231F20;}
	.st19{fill:#6D6E70;}
	.st20{fill:#EC328C;}
	.st21{fill:#D91C5C;}
</style>
<g id="Guides">
</g>
<g id="Layer_2">
</g>
<g id="Layer_9">
</g>
<g id="Layer_10">
</g>
<g id="Layer_11">
</g>
<g id="Layer_3">
</g>
<g id="Layer_4">
</g>
<g id="Layer_5">
</g>
<g id="Layer_6">
</g>
<g id="Layer_7">
	<g>
		<g>
			<path class="st18" d="M88.5,40.3h-1.6l-2.5-3.5c-0.6,0.6-1.3,1.1-2,1.6c-0.7,0.5-1.4,0.9-2.2,1.3c-0.8,0.4-1.6,0.6-2.4,0.9
				c-0.8,0.2-1.6,0.3-2.5,0.3c-1.8,0-3.5-0.3-5.1-0.9c-1.6-0.6-3-1.5-4.2-2.7c-1.2-1.2-2.1-2.6-2.8-4.3c-0.7-1.7-1-3.6-1-5.7
				c0-2,0.3-3.8,1-5.5c0.7-1.7,1.6-3.1,2.8-4.3c1.2-1.2,2.6-2.1,4.2-2.8c1.6-0.7,3.3-1,5.1-1c0.8,0,1.7,0.1,2.5,0.3
				c0.8,0.2,1.6,0.5,2.4,0.9c0.8,0.4,1.5,0.8,2.2,1.3c0.7,0.5,1.3,1,2,1.6l2.5-3h1.6V40.3z M81.9,27.2c0-0.9-0.2-1.8-0.5-2.6
				C81,23.7,80.5,23,80,22.3c-0.6-0.6-1.3-1.2-2.1-1.6c-0.8-0.4-1.6-0.6-2.5-0.6c-0.9,0-1.7,0.2-2.5,0.5c-0.8,0.3-1.5,0.8-2.1,1.3
				c-0.6,0.6-1,1.3-1.4,2.2c-0.3,0.9-0.5,1.9-0.5,3c0,1.1,0.2,2.1,0.5,3c0.3,0.9,0.8,1.6,1.4,2.2c0.6,0.6,1.3,1,2.1,1.3
				c0.8,0.3,1.6,0.5,2.5,0.5c0.9,0,1.7-0.2,2.5-0.6c0.8-0.4,1.5-0.9,2.1-1.6c0.6-0.6,1.1-1.4,1.4-2.2C81.7,28.9,81.9,28.1,81.9,27.2
				z"/>
			<path class="st18" d="M126.2,40.3h-6.5V23.9c0-0.4-0.1-0.9-0.3-1.3c-0.2-0.4-0.4-0.8-0.7-1.1c-0.3-0.3-0.7-0.5-1.1-0.7
				c-0.4-0.2-0.8-0.3-1.3-0.3c-0.4,0-0.9,0.1-1.3,0.3c-0.4,0.2-0.7,0.4-1,0.7c-0.3,0.3-0.5,0.7-0.7,1.1c-0.2,0.4-0.3,0.8-0.3,1.3
				v16.3h-6.6V23.9c0-0.4-0.1-0.9-0.3-1.3c-0.2-0.4-0.4-0.8-0.7-1.1c-0.3-0.3-0.7-0.5-1.1-0.7c-0.4-0.2-0.8-0.3-1.3-0.3
				c-0.4,0-0.9,0.1-1.3,0.3c-0.4,0.2-0.7,0.4-1,0.7c-0.3,0.3-0.5,0.7-0.7,1.1c-0.2,0.4-0.3,0.8-0.3,1.3v16.3h-6.6V14.5H95l1.8,2
				c0.9-0.8,1.9-1.4,3-1.8c1.1-0.4,2.2-0.6,3.4-0.6c1.2,0,2.4,0.2,3.5,0.7c1.1,0.4,2.1,1.2,3,2.3c0.4-0.5,0.9-1,1.4-1.4
				c0.5-0.4,1.1-0.7,1.6-0.9c0.6-0.2,1.2-0.4,1.8-0.5c0.6-0.1,1.2-0.2,1.8-0.2c1.4,0,2.6,0.3,3.8,0.8c1.2,0.5,2.2,1.2,3.1,2.1
				c0.9,0.9,1.6,1.9,2.1,3.1c0.5,1.2,0.8,2.5,0.8,3.8V40.3z"/>
			<path class="st18" d="M139,40.3h-6.6V21.1h-3.2v-6.5h3.2v-1.2c0-1.6,0.3-3.1,0.9-4.5c0.6-1.4,1.4-2.6,2.5-3.6
				c1-1,2.3-1.8,3.7-2.4c1.4-0.6,2.9-0.9,4.5-0.9h4.9v6.5h-4.9c-0.7,0-1.4,0.1-2,0.4c-0.6,0.2-1.1,0.6-1.6,1c-0.4,0.4-0.8,1-1,1.6
				c-0.3,0.6-0.4,1.3-0.4,2v1.2h8v6.5h-8V40.3z"/>
			<path class="st18" d="M174.5,27.2c0,1.9-0.3,3.7-1,5.4c-0.7,1.7-1.6,3.1-2.8,4.3c-1.2,1.2-2.6,2.2-4.2,2.9c-1.6,0.7-3.3,1-5.1,1
				c-1.8,0-3.5-0.3-5.1-1c-1.6-0.7-3-1.6-4.2-2.9c-1.2-1.2-2.1-2.6-2.8-4.3c-0.7-1.7-1-3.4-1-5.4c0-2,0.3-3.8,1-5.4
				c0.7-1.7,1.6-3.1,2.8-4.3c1.2-1.2,2.6-2.2,4.2-2.8c1.6-0.7,3.3-1,5.1-1c1.8,0,3.5,0.3,5.1,1c1.6,0.6,3,1.6,4.2,2.8
				c1.2,1.2,2.1,2.6,2.8,4.3C174.1,23.3,174.5,25.1,174.5,27.2z M167.9,27.2c0-1.1-0.2-2-0.5-2.9c-0.3-0.9-0.8-1.6-1.4-2.2
				c-0.6-0.6-1.3-1.1-2.1-1.4c-0.8-0.3-1.6-0.5-2.5-0.5c-0.9,0-1.7,0.2-2.5,0.5c-0.8,0.3-1.5,0.8-2.1,1.4c-0.6,0.6-1,1.4-1.4,2.2
				c-0.3,0.9-0.5,1.8-0.5,2.9c0,1,0.2,1.9,0.5,2.8c0.3,0.8,0.8,1.6,1.4,2.2c0.6,0.6,1.3,1.1,2.1,1.5c0.8,0.4,1.6,0.5,2.5,0.5
				c0.9,0,1.7-0.2,2.5-0.5c0.8-0.3,1.5-0.8,2.1-1.4c0.6-0.6,1.1-1.3,1.4-2.2C167.7,29.2,167.9,28.2,167.9,27.2z"/>
			<path class="st18" d="M184.6,40.3h-6.6V14.5h1.6l2.2,3c1.1-1,2.3-1.7,3.6-2.2c1.3-0.5,2.7-0.8,4.2-0.8h5.8v6.5h-5.8
				c-0.7,0-1.3,0.1-1.9,0.4c-0.6,0.3-1.1,0.6-1.6,1.1c-0.4,0.4-0.8,1-1.1,1.6c-0.3,0.6-0.4,1.3-0.4,1.9V40.3z"/>
			<path class="st18" d="M222.9,40.3h-1.6l-2.5-3.5c-0.6,0.6-1.3,1.1-2,1.6c-0.7,0.5-1.4,0.9-2.2,1.3c-0.8,0.4-1.6,0.6-2.4,0.9
				c-0.8,0.2-1.6,0.3-2.5,0.3c-1.8,0-3.5-0.3-5.1-0.9c-1.6-0.6-3-1.5-4.2-2.7c-1.2-1.2-2.1-2.6-2.8-4.3c-0.7-1.7-1-3.6-1-5.7
				c0-2,0.3-3.8,1-5.5c0.7-1.7,1.6-3.1,2.8-4.3c1.2-1.2,2.6-2.1,4.2-2.8c1.6-0.7,3.3-1,5.1-1c0.8,0,1.7,0.1,2.5,0.3
				c0.8,0.2,1.6,0.5,2.4,0.9c0.8,0.4,1.5,0.8,2.2,1.3c0.7,0.5,1.3,1,2,1.6l2.5-3h1.6V40.3z M216.3,27.2c0-0.9-0.2-1.8-0.5-2.6
				c-0.3-0.8-0.8-1.6-1.4-2.2c-0.6-0.6-1.3-1.2-2.1-1.6c-0.8-0.4-1.6-0.6-2.5-0.6c-0.9,0-1.7,0.2-2.5,0.5c-0.8,0.3-1.5,0.8-2.1,1.3
				c-0.6,0.6-1,1.3-1.4,2.2c-0.3,0.9-0.5,1.9-0.5,3c0,1.1,0.2,2.1,0.5,3c0.3,0.9,0.8,1.6,1.4,2.2c0.6,0.6,1.3,1,2.1,1.3
				c0.8,0.3,1.6,0.5,2.5,0.5c0.9,0,1.7-0.2,2.5-0.6c0.8-0.4,1.5-0.9,2.1-1.6c0.6-0.6,1.1-1.4,1.4-2.2
				C216.1,28.9,216.3,28.1,216.3,27.2z"/>
			<path class="st19" d="M235.9,37.8c0,0.6-0.1,1.1-0.3,1.6c-0.2,0.5-0.5,0.9-0.9,1.3c-0.4,0.4-0.8,0.7-1.3,0.9
				c-0.5,0.2-1,0.3-1.6,0.3c-0.6,0-1.1-0.1-1.6-0.3c-0.5-0.2-0.9-0.5-1.3-0.9c-0.4-0.4-0.7-0.8-0.9-1.3c-0.2-0.5-0.3-1-0.3-1.6
				c0-0.6,0.1-1.1,0.3-1.6c0.2-0.5,0.5-0.9,0.9-1.3c0.4-0.4,0.8-0.7,1.3-0.9c0.5-0.2,1-0.3,1.6-0.3c0.6,0,1.1,0.1,1.6,0.3
				c0.5,0.2,0.9,0.5,1.3,0.9c0.4,0.4,0.7,0.8,0.9,1.3C235.8,36.7,235.9,37.2,235.9,37.8z"/>
			<path class="st19" d="M247.4,50h-6.6V14.5h1.6l2.6,3.1c0.6-0.6,1.2-1.1,1.9-1.6c0.7-0.5,1.4-0.9,2.2-1.3c0.8-0.4,1.5-0.6,2.4-0.9
				c0.8-0.2,1.6-0.3,2.5-0.3c1.8,0,3.5,0.3,5.1,1c1.6,0.6,3,1.6,4.2,2.7c1.2,1.2,2.1,2.6,2.8,4.3c0.7,1.7,1,3.5,1,5.6
				c0,2.1-0.3,4-1,5.7c-0.7,1.7-1.6,3.1-2.8,4.3c-1.2,1.2-2.6,2.1-4.2,2.7c-1.6,0.6-3.3,0.9-5.1,0.9c-0.6,0-1.1-0.1-1.7-0.2
				c-0.6-0.1-1.1-0.3-1.7-0.5c-0.6-0.2-1.1-0.5-1.6-0.7c-0.5-0.3-1.1-0.6-1.5-0.8V50z M260.5,27.2c0-1.1-0.2-2.1-0.5-2.9
				c-0.3-0.9-0.8-1.6-1.4-2.2c-0.6-0.6-1.3-1.1-2.1-1.4c-0.8-0.3-1.6-0.5-2.5-0.5c-0.9,0-1.7,0.2-2.5,0.5c-0.8,0.3-1.5,0.8-2.1,1.4
				c-0.6,0.6-1.1,1.3-1.4,2.2c-0.3,0.9-0.5,1.8-0.5,2.9c0,1,0.2,2,0.5,2.9c0.3,0.9,0.8,1.6,1.4,2.2c0.6,0.6,1.3,1.1,2.1,1.4
				c0.8,0.3,1.6,0.5,2.5,0.5c0.9,0,1.7-0.2,2.5-0.5c0.8-0.3,1.5-0.8,2.1-1.4c0.6-0.6,1.1-1.3,1.4-2.2
				C260.3,29.2,260.5,28.2,260.5,27.2z"/>
			<path class="st19" d="M277.3,40.3h-6.6V4.3h6.6V40.3z"/>
		</g>
		<circle class="st20" cx="25.7" cy="25.7" r="25.7"/>
		<g>
			<path class="st5" d="M41.4,24.5v0.4c0,1.2-0.2,2.5-0.4,3.8c-0.2,1.3-0.5,2.6-1,3.9c-0.4,1.3-0.9,2.6-1.5,3.9
				c-0.6,1.3-1.2,2.5-1.9,3.7c-0.7,1.2-1.5,2.3-2.3,3.3c-0.8,1-1.7,1.9-2.6,2.7l-3.3-1.9c0.5-0.9,1-1.8,1.4-2.8
				c0.4-1,0.8-2.1,1.1-3.2c0.3-1.1,0.6-2.2,0.9-3.4c0.2-1.2,0.4-2.3,0.6-3.5c0.2-1.2,0.3-2.3,0.4-3.4C33,27,33,25.9,33,24.9
				c0-0.8,0-1.7,0-2.7c0-1-0.1-2-0.2-3c-0.1-1-0.3-2-0.5-3c-0.2-1-0.6-1.9-1.1-2.6c-0.5-0.8-1.1-1.4-1.9-1.9
				c-0.8-0.5-1.7-0.7-2.9-0.7c-1,0-1.9,0.2-2.6,0.5c-0.7,0.3-1.3,0.8-1.8,1.4c-0.5,0.6-0.9,1.2-1.2,2c-0.3,0.8-0.5,1.6-0.7,2.4
				c-0.2,0.8-0.3,1.7-0.3,2.5c-0.1,0.9-0.1,1.7-0.1,2.4v6.1h9.4v3.6h-9.4v7.6h-8.7v-16c0-2.3,0.4-4.4,1.1-6.4c0.7-2,1.8-3.7,3.1-5.1
				c1.3-1.4,2.9-2.6,4.8-3.4c1.9-0.8,4-1.2,6.3-1.2c1.6,0,3,0.2,4.4,0.7c1.4,0.4,2.6,1.1,3.7,1.8c1.1,0.8,2.1,1.7,3,2.8
				c0.9,1.1,1.6,2.2,2.2,3.5c0.6,1.3,1,2.6,1.3,4C41.3,21.7,41.4,23.1,41.4,24.5z"/>
		</g>
	</g>
</g>
<g id="Layer_8">
</g>
</svg>
