<?xml version="1.0" encoding="utf-8"?>
<!-- Generator: Adobe Illustrator 21.1.0, SVG Export Plug-In . SVG Version: 6.00 Build 0)  -->
<svg version="1.1" xmlns="http://www.w3.org/2000/svg" xmlns:xlink="http://www.w3.org/1999/xlink" x="0px" y="0px"
	 viewBox="0 0 278.4 51.2" style="enable-background:new 0 0 278.4 51.2;" xml:space="preserve">
<style type="text/css">
	.st0{fill:#86CEE9;}
	.st1{fill:#E73C79;}
	.st2{fill:#1D1D1B;}
	.st3{fill:#565555;}
	.st4{fill:#F8B133;}
	.st5{fill:#FFFFFF;}
	.st6{fill:#E31F27;}
	.st7{fill:#EC2227;}
	.st8{fill:#29367D;}
	.st9{fill:#009EE2;}
	.st10{fill:#A2195B;}
	.st11{fill:#312782;}
	.st12{fill:#E61B72;}
	.st13{fill-rule:evenodd;clip-rule:evenodd;fill:#231F20;}
	.st14{fill-rule:evenodd;clip-rule:evenodd;fill:#ED1C24;}
	.st15{fill:#00A9B0;}
	.st16{fill:#614948;}
	.st17{fill:#BED362;}
	.st18{fill:#231F20;}
	.st19{fill:#6D6E70;}
	.st20{fill:#EC328C;}
	.st21{fill:#D91C5C;}
</style>
<g id="Guides">
</g>
<g id="Layer_2">
</g>
<g id="Layer_9">
</g>
<g id="Layer_10">
</g>
<g id="Layer_11">
</g>
<g id="Layer_3">
</g>
<g id="Layer_4">
	<g>
		<path class="st13" d="M277.7,34.5l0.7,4.2c-1.3,0.3-2.5,0.4-3.5,0.4c-1.7,0-3-0.3-4-0.8c-0.9-0.5-1.6-1.2-2-2.1
			c-0.4-0.9-0.6-2.7-0.6-5.5V14.7h-3.4V11h3.4V4.2l4.7-2.8V11h4.7v3.7H273v16.2c0,1.3,0.1,2.2,0.2,2.6c0.2,0.4,0.4,0.7,0.8,0.9
			c0.4,0.2,0.9,0.3,1.6,0.3C276.2,34.7,276.9,34.7,277.7,34.5L277.7,34.5z M245.8,22.2h15.5c-0.2-2.3-0.8-4.1-1.8-5.2
			c-1.5-1.8-3.4-2.7-5.8-2.7c-2.2,0-4,0.7-5.4,2.2C246.7,17.9,245.9,19.8,245.8,22.2L245.8,22.2z M261.2,29.8l4.9,0.6
			c-0.8,2.8-2.2,5-4.2,6.6c-2.1,1.6-4.7,2.3-7.9,2.3c-4.1,0-7.3-1.2-9.6-3.7c-2.4-2.5-3.6-6-3.6-10.5c0-4.7,1.2-8.3,3.6-10.9
			c2.4-2.6,5.5-3.9,9.3-3.9c3.7,0,6.7,1.3,9.1,3.8c2.4,2.5,3.5,6.1,3.5,10.6c0,0.3,0,0.7,0,1.3h-20.7c0.2,3,1,5.4,2.6,7
			c1.5,1.6,3.5,2.4,5.8,2.4c1.7,0,3.2-0.5,4.4-1.4C259.5,33.2,260.5,31.8,261.2,29.8L261.2,29.8z M217,38.7V11h4.2V15
			c2-3,5-4.6,8.8-4.6c1.7,0,3.2,0.3,4.6,0.9c1.4,0.6,2.5,1.4,3.1,2.4c0.7,1,1.2,2.1,1.5,3.5c0.2,0.9,0.3,2.4,0.3,4.6v17h-4.7V21.9
			c0-1.9-0.2-3.3-0.5-4.3c-0.4-0.9-1-1.7-1.9-2.3c-0.9-0.6-2-0.9-3.3-0.9c-2,0-3.7,0.6-5.2,1.9c-1.5,1.3-2.2,3.7-2.2,7.2v15.1H217
			L217,38.7z M207.9,33.4h5.4v5.4h-5.4V33.4L207.9,33.4z M207.9,38.7 M198.1,22.5c-0.1-2.1-0.6-3.7-1.6-4.8c-1-1.1-2.3-1.7-3.8-1.7
			c-1.6,0-2.9,0.6-4,1.8c-1,1.2-1.6,2.7-1.5,4.7H198.1L198.1,22.5z M197.7,29.9l7.3,1.2c-0.9,2.7-2.4,4.7-4.5,6.1
			c-2,1.4-4.6,2.1-7.6,2.1c-4.8,0-8.4-1.6-10.7-4.7c-1.8-2.5-2.7-5.7-2.7-9.5c0-4.6,1.2-8.2,3.6-10.8c2.4-2.6,5.4-3.9,9.1-3.9
			c4.1,0,7.4,1.4,9.8,4.1c2.4,2.7,3.5,6.9,3.4,12.5H187c0.1,2.2,0.6,3.9,1.8,5.1c1.1,1.2,2.5,1.8,4.2,1.8c1.1,0,2.1-0.3,2.9-0.9
			C196.7,32.3,197.3,31.3,197.7,29.9L197.7,29.9z M171.2,0.5h7.3v38.3h-7.3V0.5L171.2,0.5z M171.2,38.7 M162.4,22.5
			c-0.1-2.1-0.6-3.7-1.6-4.8c-1-1.1-2.3-1.7-3.8-1.7c-1.6,0-2.9,0.6-4,1.8c-1,1.2-1.6,2.7-1.5,4.7H162.4L162.4,22.5z M162,29.9
			l7.3,1.2c-0.9,2.7-2.4,4.7-4.5,6.1c-2,1.4-4.6,2.1-7.6,2.1c-4.8,0-8.4-1.6-10.7-4.7c-1.8-2.5-2.7-5.7-2.7-9.5
			c0-4.6,1.2-8.2,3.6-10.8c2.4-2.6,5.4-3.9,9.1-3.9c4.1,0,7.4,1.4,9.8,4.1c2.4,2.7,3.5,6.9,3.4,12.5h-18.4c0.1,2.2,0.6,3.9,1.8,5.1
			c1.1,1.2,2.5,1.8,4.2,1.8c1.1,0,2.1-0.3,2.9-0.9C161,32.3,161.6,31.3,162,29.9L162,29.9z M136.6,38.7h-7.3V11h6.8V15
			c1.2-1.9,2.2-3.1,3.1-3.7c0.9-0.6,2-0.9,3.2-0.9c1.7,0,3.3,0.5,4.8,1.4l-2.3,6.4c-1.2-0.8-2.4-1.2-3.4-1.2c-1,0-1.9,0.3-2.6,0.8
			c-0.7,0.6-1.3,1.6-1.7,3.1c-0.4,1.5-0.6,4.6-0.6,9.3V38.7L136.6,38.7z M107.2,24.9c0,2.8,0.7,4.9,2,6.3c1.3,1.5,2.9,2.2,4.8,2.2
			c1.9,0,3.5-0.7,4.8-2.2c1.3-1.5,1.9-3.6,1.9-6.4c0-2.7-0.6-4.8-1.9-6.3c-1.3-1.5-2.9-2.2-4.8-2.2c-1.9,0-3.5,0.7-4.8,2.2
			C107.9,20,107.2,22.1,107.2,24.9L107.2,24.9z M99.7,24.5c0-2.4,0.6-4.8,1.8-7.1c1.2-2.3,2.9-4,5.1-5.2c2.2-1.2,4.7-1.8,7.4-1.8
			c4.2,0,7.6,1.4,10.3,4.1c2.7,2.7,4,6.2,4,10.3c0,4.2-1.4,7.7-4.1,10.4c-2.7,2.8-6.1,4.1-10.2,4.1c-2.5,0-5-0.6-7.3-1.7
			c-2.3-1.1-4.1-2.8-5.3-5.1C100.3,30.4,99.7,27.7,99.7,24.5L99.7,24.5z M57.8,11h6.8v3.8c2.4-2.9,5.3-4.4,8.6-4.4
			c1.8,0,3.3,0.4,4.6,1.1c1.3,0.7,2.4,1.8,3.2,3.3c1.2-1.5,2.5-2.6,3.9-3.3c1.4-0.7,2.9-1.1,4.5-1.1c2,0,3.8,0.4,5.2,1.2
			c1.4,0.8,2.5,2,3.2,3.6c0.5,1.2,0.8,3.1,0.8,5.7v17.7h-7.3V22.9c0-2.8-0.2-4.5-0.8-5.3c-0.7-1-1.7-1.6-3.1-1.6c-1,0-2,0.3-2.9,0.9
			c-0.9,0.6-1.5,1.5-2,2.8c-0.4,1.2-0.6,3.1-0.6,5.7v13.3h-7.3V23.6c0-2.7-0.1-4.4-0.4-5.2c-0.3-0.8-0.7-1.4-1.2-1.7
			c-0.6-0.4-1.3-0.6-2.2-0.6c-1.1,0-2.1,0.3-3,0.9c-0.9,0.6-1.6,1.5-2,2.6c-0.4,1.1-0.6,3-0.6,5.7v13.5h-7.3V11L57.8,11z"/>
		<path class="st14" d="M3.2,13.2V38C1.2,34.3,0,30.1,0,25.6S1.2,16.9,3.2,13.2z"/>
		<path class="st14" d="M45.8,9.9c-1.2-0.5-2.6-0.7-4.1-0.7c-2,0-3.8,0.3-5.3,1c-1.4,0.7-2.9,1.9-4.6,3.7c-0.8-1.5-1.9-2.7-3.2-3.5
			c-1.3-0.8-3.2-1.2-5.4-1.2c-2.1,0-4,0.4-5.4,1.1c-1.4,0.7-2.8,1.9-4.2,3.5v-4H5.4c4.7-6,12-9.9,20.2-9.9C33.8,0,41.1,3.9,45.8,9.9
			z"/>
		<path class="st14" d="M47.6,38.7c-4.5,7.5-12.7,12.5-22,12.5s-17.5-5-22-12.5h10.7V24c0-2.1,0.4-3.7,1.2-4.6
			c0.8-0.9,1.8-1.4,3-1.4c0.7,0,1.4,0.2,1.9,0.6c0.5,0.4,0.9,1,1.2,1.7c0.1,0.4,0.2,1.3,0.2,2.5v15.9h11.1V23.9
			c0-2.1,0.4-3.5,1.1-4.4c0.8-0.9,1.8-1.3,3-1.3c1,0,1.9,0.5,2.6,1.4c0.5,0.6,0.7,1.5,0.7,2.8v16.4H47.6z"/>
	</g>
</g>
<g id="Layer_5">
</g>
<g id="Layer_6">
</g>
<g id="Layer_7">
</g>
<g id="Layer_8">
</g>
</svg>
