<?xml version="1.0" encoding="utf-8"?>
<!-- Generator: Adobe Illustrator 21.1.0, SVG Export Plug-In . SVG Version: 6.00 Build 0)  -->
<svg version="1.1" xmlns="http://www.w3.org/2000/svg" xmlns:xlink="http://www.w3.org/1999/xlink" x="0px" y="0px"
	 viewBox="0 0 240.8 64" style="enable-background:new 0 0 240.8 64;" xml:space="preserve">
<style type="text/css">
	.st0{fill:#86CEE9;}
	.st1{fill:#E73C79;}
	.st2{fill:#1D1D1B;}
	.st3{fill:#565555;}
	.st4{fill:#F8B133;}
	.st5{fill:#FFFFFF;}
	.st6{fill:#E31F27;}
	.st7{fill:#EC2227;}
	.st8{fill:#29367D;}
	.st9{fill:#009EE2;}
	.st10{fill:#A2195B;}
	.st11{fill:#312782;}
	.st12{fill:#E61B72;}
	.st13{fill-rule:evenodd;clip-rule:evenodd;fill:#231F20;}
	.st14{fill-rule:evenodd;clip-rule:evenodd;fill:#ED1C24;}
	.st15{fill:#00A9B0;}
	.st16{fill:#614948;}
	.st17{fill:#BED362;}
	.st18{fill:#231F20;}
	.st19{fill:#6D6E70;}
	.st20{fill:#EC328C;}
	.st21{fill:#D91C5C;}
</style>
<g id="Guides">
</g>
<g id="Layer_2">
</g>
<g id="Layer_9">
</g>
<g id="Layer_10">
</g>
<g id="Layer_11">
</g>
<g id="Layer_3">
</g>
<g id="Layer_4">
</g>
<g id="Layer_5">
	<g>
		<path class="st15" d="M23.4,19.2H10.1v17h13.3c4.6,0,8.2-3.8,8.2-8.5C31.7,23.1,28,19.2,23.4,19.2 M23.4,45.9H10.1v16.9H0V9.6
			h23.4c10.4,0,18.7,7.7,18.7,18.2C42.2,38.2,33.8,45.9,23.4,45.9"/>
		<path class="st15" d="M75.7,21.5l-3.2,9.2c-0.9-0.3-2-0.5-3.1-0.5c-5.8,0-10.4,4.8-10.4,10.6v22H48.9V21.7h9.4v5.7
			c2.1-3.6,5.6-6.9,11.1-6.9C71.6,20.5,73.7,20.9,75.7,21.5"/>
		<path class="st15" d="M110.8,38.1c-1.5-5-5.9-8.2-11.3-8.2c-5.3,0-9.7,3.2-11.2,8.2H110.8z M121,46.8H88.3c1.7,5,6.1,8.2,11.2,8.2
			c4.6,0,9.3-2.2,11.4-5.7l7.7,5c-4,5.9-11.1,9.8-19.1,9.8c-12.3,0-22.4-9.4-22.4-21.8c0-12.4,10.1-21.7,22.4-21.7
			c12.1,0,22.1,9.6,22.1,21.7C121.6,43.8,121.4,45.3,121,46.8"/>
		<path class="st15" d="M150.4,51.1c0-2.9-1.4-3.9-9.9-5c-9.2-1.2-14.1-5-14.1-13c0-7.9,6.7-12.6,16.5-12.6c6.2,0,12,1.8,16.4,4.8
			l-4.4,7.6c-2.8-2.1-7.6-3.5-12-3.5c-4.4,0-6.3,1.6-6.3,3.7c0,2.6,1.1,3.4,8.3,4.3c10.6,1.5,15.8,5.2,15.8,13.8
			c0,8.4-8.2,12.9-17.8,12.9c-6.7,0-12.8-1.8-17.4-4.8l4.9-8c3,2.2,7.5,3.6,12.5,3.9C147.5,55.3,150.4,53.6,150.4,51.1"/>
		<path class="st15" d="M166.1,30.5v-8.8h3.8v-9.3h10.1v9.3h7v8.8h-7v20.1c0,1.4,1.1,2.5,2.4,2.5h4.6v9.6h-4.6
			c-7.4,0-12.5-4.7-12.5-12.1V30.5H166.1z"/>
		<rect x="195.8" y="53.1" class="st15" width="45" height="9.6"/>
		<path class="st15" d="M218.3,9.6c-6.6,0-12,5.5-12,12.1c0,6.7,5.4,12.1,12,12.1c6.7,0,12-5.5,12-12.1
			C230.3,15.1,225.1,9.6,218.3,9.6 M218.3,43.5c-12.4,0-22.5-9.3-22.5-21.8C195.8,9.3,205.9,0,218.3,0c12.5,0,22.5,9.3,22.5,21.7
			C240.8,34.2,230.8,43.5,218.3,43.5"/>
	</g>
</g>
<g id="Layer_6">
</g>
<g id="Layer_7">
</g>
<g id="Layer_8">
</g>
</svg>
