<?xml version="1.0" encoding="utf-8"?>
<!-- Generator: Adobe Illustrator 21.1.0, SVG Export Plug-In . SVG Version: 6.00 Build 0)  -->
<svg version="1.1" xmlns="http://www.w3.org/2000/svg" xmlns:xlink="http://www.w3.org/1999/xlink" x="0px" y="0px"
	 viewBox="0 0 278.6 59.7" style="enable-background:new 0 0 278.6 59.7;" xml:space="preserve">
<style type="text/css">
	.st0{fill:#86CEE9;}
	.st1{fill:#E73C79;}
	.st2{fill:#1D1D1B;}
	.st3{fill:#565555;}
	.st4{fill:#F8B133;}
	.st5{fill:#FFFFFF;}
	.st6{fill:#E31F27;}
	.st7{fill:#EC2227;}
	.st8{fill:#29367D;}
	.st9{fill:#009EE2;}
	.st10{fill:#A2195B;}
	.st11{fill:#312782;}
	.st12{fill:#E61B72;}
	.st13{fill-rule:evenodd;clip-rule:evenodd;fill:#231F20;}
	.st14{fill-rule:evenodd;clip-rule:evenodd;fill:#ED1C24;}
	.st15{fill:#00A9B0;}
	.st16{fill:#614948;}
	.st17{fill:#BED362;}
	.st18{fill:#231F20;}
	.st19{fill:#6D6E70;}
	.st20{fill:#EC328C;}
	.st21{fill:#D91C5C;}
</style>
<g id="Guides">
</g>
<g id="Layer_2">
</g>
<g id="Layer_9">
</g>
<g id="Layer_10">
</g>
<g id="Layer_11">
	<g>
		<g>
			<polygon class="st7" points="76.8,22.4 71.2,22.4 71.2,52.9 5.7,52.9 5.7,22.4 0,22.4 38.4,0 52.5,8.2 52.5,0 64.2,0 64.2,15.1 
							"/>
		</g>
		<g>
			<path class="st8" d="M84,51.5c0.1-1.3,0.2-3.6,0.2-5.7V23.6h6v10.9h0.1c1.1-1.6,3.1-2.7,5.8-2.7c4.6,0,8,3.8,7.9,9.7
				c0,6.9-4.4,10.3-8.8,10.3c-2.2,0-4.4-0.8-5.8-3.1h-0.1l-0.2,2.7H84z M90.1,43.3c0,0.4,0,0.7,0.1,1.1c0.4,1.6,1.8,2.8,3.5,2.8
				c2.5,0,4.1-2,4.1-5.4c0-3-1.3-5.3-4.1-5.3c-1.6,0-3.1,1.2-3.5,2.9c-0.1,0.4-0.1,0.7-0.1,1.1V43.3z"/>
			<path class="st8" d="M125.7,45.3c0,2.5,0.1,4.5,0.2,6.2h-5.2l-0.3-2.7h-0.1c-0.7,1.2-2.5,3.1-6,3.1c-3.9,0-6.7-2.4-6.7-8.3V32.3
				h6v10.3c0,2.8,0.9,4.5,3,4.5c1.6,0,2.6-1.1,3-2.1c0.2-0.4,0.2-0.8,0.2-1.3V32.3h6V45.3z"/>
			<path class="st8" d="M149.1,23.6v22.1c0,2.2,0.1,4.4,0.2,5.7h-5.3l-0.3-2.8h-0.1c-1.2,2.2-3.5,3.3-6,3.3c-4.5,0-8.2-3.9-8.2-9.8
				c0-6.5,4-10.2,8.6-10.2c2.4,0,4.2,0.8,5.1,2.2h0.1V23.6H149.1z M143.1,40.4c0-0.3,0-0.7-0.1-1.1c-0.4-1.6-1.6-2.9-3.5-2.9
				c-2.7,0-4.1,2.4-4.1,5.4c0,3.3,1.6,5.3,4.1,5.3c1.7,0,3.1-1.2,3.4-2.9c0.1-0.4,0.2-0.9,0.2-1.4V40.4z"/>
			<path class="st8" d="M171.9,45.3c0,2.5,0.1,4.5,0.2,6.2h-5.2l-0.3-2.7h-0.1c-0.7,1.2-2.5,3.1-6,3.1c-3.9,0-6.7-2.4-6.7-8.3V32.3
				h6v10.3c0,2.8,0.9,4.5,3,4.5c1.6,0,2.6-1.1,3-2.1c0.2-0.4,0.2-0.8,0.2-1.3V32.3h6V45.3z"/>
			<path class="st8" d="M172.8,55c1.6-0.1,2.8-0.5,3.5-1.3c0.9-0.9,1.2-2.4,1.2-6.2V32.3h6v16.6c0,4.2-0.9,6.7-2.7,8.4
				s-4.5,2.4-7.4,2.4L172.8,55z M183.6,27c0,1.6-1.2,3-3.2,3c-1.9,0-3.1-1.3-3.1-3c0-1.7,1.2-3,3.2-3C182.4,24,183.6,25.3,183.6,27z
				"/>
			<path class="st8" d="M192.7,43.8c0.2,2.5,2.6,3.6,5.4,3.6c2,0,3.7-0.3,5.3-0.8l0.8,4c-2,0.8-4.4,1.2-6.9,1.2
				c-6.5,0-10.2-3.8-10.2-9.8c0-4.9,3-10.2,9.7-10.2c6.2,0,8.5,4.8,8.5,9.6c0,1-0.1,1.9-0.2,2.4H192.7z M199.7,39.7
				c0-1.5-0.6-3.9-3.4-3.9c-2.5,0-3.5,2.3-3.7,3.9H199.7z"/>
			<path class="st8" d="M208.8,46.3c1.1,0.7,3.4,1.5,5.1,1.5c1.8,0,2.5-0.6,2.5-1.6s-0.6-1.5-2.8-2.2c-4-1.3-5.5-3.5-5.4-5.8
				c0-3.6,3.1-6.3,7.8-6.3c2.2,0,4.2,0.5,5.4,1.1l-1.1,4.1c-0.9-0.5-2.5-1.1-4.2-1.1c-1.5,0-2.3,0.6-2.3,1.6c0,0.9,0.7,1.4,3.1,2.2
				c3.6,1.3,5.2,3.1,5.2,5.9c0,3.6-2.8,6.2-8.3,6.2c-2.5,0-4.7-0.5-6.2-1.3L208.8,46.3z"/>
			<path class="st8" d="M224.3,48.1l6-7.6c1.1-1.3,2-2.2,3.1-3.4V37H225v-4.7h15.7v3.6l-5.8,7.3c-1.1,1.3-2,2.5-3.1,3.5v0.1h9.2v4.7
				h-16.7V48.1z"/>
			<path class="st8" d="M243.9,49.4c0-1.5,1-2.5,2.4-2.5s2.3,1,2.3,2.5c0,1.4-0.9,2.5-2.4,2.5C244.8,51.9,243.9,50.9,243.9,49.4z"/>
			<path class="st8" d="M252.8,38.7c0-2.4-0.1-4.4-0.2-6.2h3.1l0.2,3.3h0.1c1.4-2.3,3.6-3.7,6.7-3.7c4.6,0,8,3.9,8,9.6
				c0,6.8-4.2,10.2-8.6,10.2c-2.5,0-4.7-1.1-5.8-3h-0.1v10.3h-3.4V38.7z M256.2,43.8c0,0.5,0.1,1,0.2,1.4c0.6,2.4,2.7,4,5.2,4
				c3.6,0,5.8-3,5.8-7.3c0-3.8-2-7.1-5.6-7.1c-2.4,0-4.5,1.7-5.2,4.3c-0.1,0.4-0.2,0.9-0.2,1.4V43.8z"/>
			<path class="st8" d="M275.1,23.6h3.5v27.8h-3.5V23.6z"/>
		</g>
	</g>
</g>
<g id="Layer_3">
</g>
<g id="Layer_4">
</g>
<g id="Layer_5">
</g>
<g id="Layer_6">
</g>
<g id="Layer_7">
</g>
<g id="Layer_8">
</g>
</svg>
