<?xml version="1.0" encoding="utf-8"?>
<!-- Generator: Adobe Illustrator 23.0.3, SVG Export Plug-In . SVG Version: 6.00 Build 0)  -->
<svg version="1.1" id="Warstwa_1" xmlns="http://www.w3.org/2000/svg" xmlns:xlink="http://www.w3.org/1999/xlink" x="0px" y="0px"
	 viewBox="0 0 213 213" style="enable-background:new 0 0 213 213;" xml:space="preserve">
<style type="text/css">
	.st0{fill:#FFFFFF;stroke:#111111;stroke-width:3.3333;stroke-linecap:round;stroke-linejoin:round;stroke-miterlimit:10;}
	.st1{fill:#E00A29;stroke:#111111;stroke-width:3.3333;stroke-linecap:round;stroke-linejoin:round;stroke-miterlimit:10;}
	.st2{enable-background:new    ;}
</style>
<g>
	<path class="st0" d="M57,73.4v87.7l14.2-28h83.9c4.1,0,7.4-3.3,7.4-7.4V73.4c0-4.1-3.3-7.4-7.4-7.4H64.4C60.3,66,57,69.3,57,73.4z"
		/>
	<polygon class="st1" points="109.1,78.4 111.3,85.1 118.4,85.1 112.7,89.3 114.9,96.1 109.1,91.9 103.3,96.1 105.5,89.3 99.8,85.1 
		106.9,85.1 	"/>
	<polygon class="st1" points="137.2,78.4 139.4,85.1 146.6,85.1 140.8,89.3 143,96.1 137.2,91.9 131.5,96.1 133.7,89.3 127.9,85.1 
		135,85.1 	"/>
	<polygon class="st1" points="95,102.3 97.2,109 104.3,109 98.6,113.2 100.8,120 95,115.8 89.3,120 91.5,113.2 85.7,109 92.8,109 	
		"/>
	<polygon class="st1" points="123.2,104.3 125.4,111 132.5,111 126.7,115.2 127.6,117.8 128.9,122 125.4,119.4 123.2,117.8 
		117.4,122 119.6,115.2 113.8,111 121,111 	"/>
	<polygon class="st1" points="81.8,78.4 83.9,85.2 91,85.3 85.2,89.4 87.3,96.2 81.6,91.9 75.7,96 78.1,89.2 72.4,85 79.5,85.1 	"/>
</g>
<g class="st2">
	<path d="M99.8,147.2c1.7,0,3.1,0.5,4.1,1.5c1,1,1.5,2.3,1.5,4c0,2-0.6,3.5-1.8,4.6c-1.2,1.1-3,1.6-5.3,1.6c-2,0-3.6-0.3-4.8-1v-3.3
		c0.6,0.3,1.4,0.6,2.2,0.8c0.9,0.2,1.7,0.3,2.4,0.3c2.3,0,3.5-0.9,3.5-2.8c0-1.8-1.2-2.7-3.6-2.7c-0.4,0-0.9,0-1.4,0.1
		c-0.5,0.1-0.9,0.2-1.3,0.3l-1.5-0.8l0.7-9.1h9.7v3.2h-6.4l-0.3,3.5l0.4-0.1C98.4,147.3,99,147.2,99.8,147.2z"/>
	<path d="M118.7,140.8l-6.7,17.8h-3.4l6.7-17.8H118.7z"/>
	<path d="M128.4,147.2c1.7,0,3.1,0.5,4.1,1.5c1,1,1.5,2.3,1.5,4c0,2-0.6,3.5-1.8,4.6c-1.2,1.1-3,1.6-5.3,1.6c-2,0-3.6-0.3-4.8-1
		v-3.3c0.6,0.3,1.4,0.6,2.2,0.8c0.9,0.2,1.7,0.3,2.4,0.3c2.3,0,3.5-0.9,3.5-2.8c0-1.8-1.2-2.7-3.6-2.7c-0.4,0-0.9,0-1.4,0.1
		c-0.5,0.1-0.9,0.2-1.3,0.3l-1.5-0.8l0.7-9.1h9.7v3.2h-6.4l-0.3,3.5l0.4-0.1C127,147.3,127.6,147.2,128.4,147.2z"/>
</g>
<g class="st2">
	<path d="M82.1,174.6l-1-3.5c-0.1-0.4-0.3-1.2-0.6-2.6h-0.1c-0.3,1.2-0.5,2.1-0.6,2.6l-1,3.5H77l-2.1-7.6h1.6l1,3.7
		c0.2,0.9,0.4,1.7,0.5,2.4h0c0-0.3,0.1-0.7,0.2-1.1c0.1-0.4,0.2-0.8,0.2-1l1.1-4h1.8l1.1,4c0.1,0.2,0.2,0.6,0.3,1s0.2,0.8,0.2,1.1
		H83c0.1-0.6,0.2-1.3,0.5-2.4l1-3.7h1.6l-2.1,7.6H82.1z"/>
	<path d="M93.8,167.1v0.9l-1.3,0.2c0.1,0.2,0.2,0.4,0.3,0.6s0.1,0.5,0.1,0.7c0,0.8-0.3,1.4-0.8,1.8s-1.3,0.7-2.2,0.7
		c-0.2,0-0.5,0-0.7-0.1c-0.3,0.2-0.5,0.5-0.5,0.8c0,0.2,0.1,0.3,0.2,0.4s0.5,0.1,0.9,0.1h1.3c0.8,0,1.5,0.2,1.9,0.5s0.6,0.9,0.6,1.5
		c0,0.9-0.4,1.5-1.1,2s-1.7,0.7-3.1,0.7c-1,0-1.8-0.2-2.4-0.5s-0.8-0.9-0.8-1.6c0-0.5,0.1-0.9,0.4-1.2c0.3-0.3,0.7-0.5,1.2-0.7
		c-0.2-0.1-0.4-0.2-0.5-0.4c-0.1-0.2-0.2-0.4-0.2-0.6c0-0.3,0.1-0.5,0.2-0.7s0.4-0.4,0.7-0.6c-0.4-0.2-0.7-0.4-1-0.8
		c-0.2-0.4-0.4-0.8-0.4-1.3c0-0.8,0.3-1.5,0.8-1.9s1.3-0.7,2.2-0.7c0.2,0,0.4,0,0.7,0c0.2,0,0.4,0.1,0.5,0.1H93.8z M87.8,175.8
		c0,0.3,0.2,0.6,0.5,0.8s0.8,0.3,1.3,0.3c0.9,0,1.5-0.1,2-0.4s0.6-0.6,0.6-1c0-0.3-0.1-0.6-0.4-0.7c-0.2-0.1-0.7-0.2-1.3-0.2h-1.2
		c-0.5,0-0.8,0.1-1.1,0.3C88,175.1,87.8,175.4,87.8,175.8z M88.5,169.5c0,0.5,0.1,0.8,0.4,1.1s0.6,0.4,1,0.4c0.9,0,1.4-0.5,1.4-1.5
		c0-0.5-0.1-0.9-0.3-1.1c-0.2-0.3-0.6-0.4-1-0.4c-0.5,0-0.8,0.1-1.1,0.4S88.5,169,88.5,169.5z"/>
	<path d="M101.8,174.8c-1.1,0-2-0.3-2.6-1c-0.6-0.7-0.9-1.6-0.9-2.9c0-1.3,0.3-2.2,0.9-2.9s1.5-1,2.7-1c0.8,0,1.5,0.1,2.2,0.4
		l-0.5,1.3c-0.7-0.3-1.2-0.4-1.7-0.4c-1.3,0-2,0.9-2,2.6c0,0.8,0.2,1.5,0.5,1.9c0.3,0.4,0.8,0.6,1.4,0.6c0.7,0,1.4-0.2,2-0.5v1.4
		c-0.3,0.2-0.6,0.3-0.9,0.4S102.3,174.8,101.8,174.8z"/>
	<path d="M109,174.8c-1.2,0-2.1-0.3-2.8-1c-0.7-0.7-1-1.6-1-2.8c0-1.2,0.3-2.2,0.9-2.9s1.5-1.1,2.5-1.1c1,0,1.8,0.3,2.4,0.9
		c0.6,0.6,0.9,1.4,0.9,2.5v0.9h-5c0,0.7,0.2,1.3,0.6,1.7c0.4,0.4,0.9,0.6,1.6,0.6c0.4,0,0.9,0,1.2-0.1c0.4-0.1,0.8-0.2,1.2-0.4v1.3
		c-0.4,0.2-0.8,0.3-1.2,0.4C110,174.7,109.5,174.8,109,174.8z M108.7,168.1c-0.5,0-0.9,0.2-1.2,0.5s-0.5,0.8-0.6,1.4h3.4
		c0-0.6-0.2-1.1-0.5-1.4C109.6,168.3,109.2,168.1,108.7,168.1z"/>
	<path d="M120.4,174.6h-1.6V170c0-0.6-0.1-1-0.4-1.3c-0.2-0.3-0.6-0.4-1.1-0.4c-0.7,0-1.2,0.2-1.5,0.6s-0.5,1.1-0.5,2v3.8h-1.6v-7.6
		h1.3l0.2,1h0.1c0.2-0.4,0.6-0.6,1-0.8c0.4-0.2,0.9-0.3,1.4-0.3c1.8,0,2.7,0.9,2.7,2.8V174.6z"/>
	<path d="M126,174.8c-1.2,0-2.1-0.3-2.8-1c-0.7-0.7-1-1.6-1-2.8c0-1.2,0.3-2.2,0.9-2.9s1.5-1.1,2.5-1.1c1,0,1.8,0.3,2.4,0.9
		c0.6,0.6,0.9,1.4,0.9,2.5v0.9h-5c0,0.7,0.2,1.3,0.6,1.7c0.4,0.4,0.9,0.6,1.6,0.6c0.4,0,0.9,0,1.2-0.1c0.4-0.1,0.8-0.2,1.2-0.4v1.3
		c-0.4,0.2-0.8,0.3-1.2,0.4C127,174.7,126.5,174.8,126,174.8z M125.7,168.1c-0.5,0-0.9,0.2-1.2,0.5s-0.5,0.8-0.5,1.4h3.4
		c0-0.6-0.2-1.1-0.5-1.4C126.6,168.3,126.2,168.1,125.7,168.1z"/>
	<path d="M137.5,170.8c0,1.2-0.3,2.2-1,2.9c-0.6,0.7-1.5,1-2.6,1c-0.7,0-1.3-0.2-1.9-0.5c-0.5-0.3-1-0.8-1.3-1.4
		c-0.3-0.6-0.4-1.3-0.4-2.1c0-1.2,0.3-2.2,0.9-2.9s1.5-1,2.7-1c1.1,0,2,0.4,2.6,1.1C137.1,168.7,137.5,169.6,137.5,170.8z
		 M131.9,170.8c0,1.7,0.6,2.6,1.9,2.6c1.3,0,1.9-0.9,1.9-2.6c0-1.7-0.6-2.6-1.9-2.6c-0.7,0-1.2,0.2-1.5,0.7
		C132.1,169.4,131.9,170,131.9,170.8z"/>
	<path d="M139.1,173.8c0-0.3,0.1-0.6,0.3-0.8c0.2-0.2,0.4-0.3,0.8-0.3c0.3,0,0.6,0.1,0.8,0.3c0.2,0.2,0.3,0.4,0.3,0.8
		c0,0.3-0.1,0.6-0.3,0.8c-0.2,0.2-0.4,0.3-0.8,0.3s-0.6-0.1-0.8-0.3C139.1,174.4,139.1,174.1,139.1,173.8z"/>
	<path d="M147,174.8c-1,0-1.7-0.3-2.2-1h-0.1c0.1,0.6,0.1,1,0.1,1.2v3.1h-1.6v-10.9h1.3c0,0.1,0.1,0.5,0.2,1h0.1
		c0.5-0.8,1.3-1.1,2.3-1.1c0.9,0,1.7,0.3,2.2,1s0.8,1.6,0.8,2.9s-0.3,2.2-0.8,2.9C148.7,174.4,147.9,174.8,147,174.8z M146.6,168.2
		c-0.6,0-1.1,0.2-1.4,0.6s-0.4,1-0.4,1.8v0.2c0,0.9,0.1,1.6,0.4,2c0.3,0.4,0.8,0.6,1.4,0.6c0.6,0,1-0.2,1.3-0.7s0.5-1.1,0.5-1.9
		c0-0.8-0.1-1.5-0.4-1.9C147.6,168.5,147.2,168.2,146.6,168.2z"/>
	<path d="M153.5,174.6h-1.6V164h1.6V174.6z"/>
</g>
</svg>
